<svg xmlns="http://www.w3.org/2000/svg" width="226" height="80" viewBox="0 0 226 80"><path fill="#c00" d="M0-.315h58.547v80H0z"/><path fill="#fff" d="M57.143 2.657L43.287 33.594l13.176 11.424-15.14.996-.072 14.672-9.162-9.22L1.53 78.143 17.044 47.62l-14.138.678 16.4-14.25L2.17 2.204l29.24 22.453z"/><path d="M191.83 38.478h12.426l3.493-16.57c.324-1.542.527-3.005.527-4.467 0-4.668-2.07-7.47-7.596-7.47-4.67 0-7.593 1.99-9.622 3.98l.77-3.574h-12.264l-6.008 28.102h12.424l3.86-18.153c.77-1.3 2.108-2.03 3.57-2.03 1.584 0 2.48.894 2.07 2.803l-3.65 17.38zm-45.482-8.976c-4.59 1.625-16.69 3.938-16.04-2.558h17.34c.77-2.194 1.3-4.508 1.3-6.7 0-6.418-4.51-10.478-12.145-10.478-10.354 0-18.15 7.268-18.15 17.178 0 7.716 4.834 12.142 14.74 12.142 3.735 0 7.717-.608 11.127-1.868l1.828-7.716zm-81.098 6.62c3.33 1.786 6.863 2.883 12.062 2.883 8.285 0 14.66-2.883 14.66-10.03 0-4.59-2.924-6.538-6.984-7.96-2.926-1.015-5.078-1.623-5.078-2.762 0-.893 1.137-1.097 2.518-1.097 3.21 0 7.066 1.057 9.705 2.354l1.666-7.39c-3.536-1.462-7.19-2.275-11.413-2.275-8.366 0-13.93 3.25-13.93 9.91 0 5.115 3.452 7.025 6.538 8.08 3.452 1.18 5.16 1.504 5.16 2.64 0 .934-1.017 1.22-2.52 1.22-3.492 0-7.756-1.504-10.64-3.21l-1.745 7.637zm30.457-17.95h3.816L97.21 28.285c-1.626 7.026 1.462 10.6 9.462 10.6 2.598 0 5.847-.325 7.717-.895l1.5-7.066c-.974.283-1.95.405-2.964.405-4.102 0-3.656-2.03-3.127-4.386l1.946-8.77h6.134l1.462-6.866h-6.092l1.666-7.755h-10.6c-1.664 6.458-2.438 8.204-7.27 8.204l-1.34 6.416zm66.07 20.306l3.535-16.488c1.664-1.827 5.765-1.95 8.566-.893l2.357-10.965c-4.39-.894-6.905 1.298-9.586 4.59l.934-4.346H155.36l-6.01 28.102h12.427zm-23.92-17.342h-6.62c.65-4.385 3.01-5.645 4.673-5.645 2.52 0 2.802 2.52 1.947 5.646z"/></svg>