<svg id="Layer_1" xmlns="http://www.w3.org/2000/svg" viewBox="0 0 435 120.984"><path fill="#FFF" d="M0 45.324c2.02-1.014 4.95-1.422 7.476-1.422h5.427v45.16c0 2.23-.585 4.96-2.304 6.45h25.34V23.63H0v21.694zM101.377 30.08v58.983c0 2.23-.5 4.62-2.22 6.45h44.614V73.12c-3.09 1.42-6.91 2.12-10.593 2.12H123.5v-7.374h5.07c2.763 0 5.207.267 7.832 1.382V49.895c-2.625 1.113-5.07 1.382-7.834 1.382l-5.07.002v-8.3h9.678c3.687 0 7.502.695 10.598 2.12V23.63h-44.7c1.72 1.49 2.305 4.22 2.305 6.45zm93.083 33.18l-7.373-20.275h11.06l7.372-19.354h-51.61c1.614 1.63 3.12 3.45 4.232 5.587l28.556 66.3h15.59L225.79 40.22v48.84c-.014 2.29-.584 4.96-2.303 6.453h44.696V73.12c-3.06 1.42-6.912 3.04-10.6 3.04h-9.676v-8.294h5.07c2.767 0 5.208.27 7.835 1.382V49.895c-2.627 1.114-5.068 1.382-7.834 1.382h-5.07v-7.373h9.68c3.687 0 7.538.7 10.6 2.12V23.63l-58.983-.002-14.745 39.63zM74.65 51.276H62.67v-7.373h.933c2.525 0 5.455.408 7.36 1.422V23.63H39.65v71.885h25.324c-1.718-1.492-2.304-4.22-2.304-6.452V68.787h11.98V89.06c0 2.233-.586 4.96-2.304 6.453H97.69V23.63l-23.04-.002v27.648zm242.845 11.797c3.838-4.238 6.175-9.8 6.175-15.452 0-16.554-12.33-23.98-25.56-23.98l-28.528-.006c1.71 1.485 2.297 4.194 2.303 6.42l-.01 59.014c0 2.223-.594 4.636-2.305 6.452h27.457c-1.72-1.817-2.112-4.348-2.112-6.453v-14.63c7.877 1.497 13.12 8.81 13.12 14.66 0 2.222-.525 4.605-2.238 6.422h27.385c-1.72-1.818-2.163-4.448-2.323-6.66-.926-12.697-5.29-21.644-13.37-25.784zm-22.58-7.096V42.89c3.687 0 8.387 1.014 8.387 6.544 0 5.53-4.7 6.543-8.387 6.543zM424.4 42.982c3.688 0 7.503.697 10.6 2.12V23.63h-44.698c1.72 1.49 2.305 4.22 2.305 6.45v58.983c0 2.23-.5 4.62-2.22 6.45H435V73.12c-3.096 1.42-6.912 2.12-10.6 2.12h-9.677v-7.374h5.07c2.764 0 5.208.267 7.832 1.382V49.895c-2.624 1.113-5.07 1.382-7.833 1.382l-5.07.002v-8.3h9.68zm-35.505 37.56V51.276H361.32c-1.414 0-3.032-.136-4.655-.645v17.88c1.623-.5 3.24-.64 4.654-.64h7.32v5.527c-.906.813-2.88 1.265-4.9 1.265-8.385 0-14.543-6.616-14.543-14.627 0-8.015 5.99-15.206 14.377-15.206 5.07 0 10.788 1.66 17.05 4.614V23.63h-18.432c-19.897 0-35.76 15.402-35.76 36.223 0 20.39 15.975 37.51 36.682 37.51 11.412 0 22.042-4.645 27.6-10.324-1.115-2.03-1.823-4.06-1.823-6.495z"/></svg>